<?xml version="1.0" encoding="UTF-8"?>
<svg xmlns="http://www.w3.org/2000/svg" viewBox="0 0 256 256" width="256" height="256" fill="currentColor">
  <path d="M170.6 135.3c.3 31.8 27.9 42.4 28.2 42.5-.2.7-4.4 15.2-14.7 30-8.9 12.9-18.2 25.8-32.8 26.1-14.3.3-18.9-8.4-35.4-8.4s-21.6 8.1-35.2 8.7c-14.1.5-24.9-14-33.9-26.8-18.4-26.3-32.4-74.3-13.6-106.8 9.4-16.3 26.1-26.6 44.2-26.9 13.8-.3 26.8 9.1 35.4 9.1 8.5 0 24.3-11.3 41-9.6 7 0 26.7 2.8 39.6 21.1-1 .6-23.4 13.7-22.8 40.9zM145.4 52.5c7.5-9.1 12.6-21.8 11.2-34.5-10.8.4-24.1 7.2-31.9 16.3-7 8.1-13 21.1-11.4 33.3 12.1.9 24.6-6.1 32.1-15.1z"/>
</svg>
<svg width="26" height="26" viewBox="0 0 26 26" fill="none" xmlns="http://www.w3.org/2000/svg">
<g clip-path="url(#clip0_11185_8801)">
<path d="M17.0068 7.03399C15.3461 7.03399 13.9864 7.99234 13.117 7.99234C12.1919 7.99234 10.9882 7.03399 9.53932 7.03399C6.78638 7.03399 4 9.24557 4 13.2897C4 15.8171 5.02539 18.4816 6.30711 20.1982C7.39938 21.6515 8.35789 22.8204 9.73994 22.8204C11.0997 22.8204 11.7015 21.9885 13.3957 21.9885C15.1121 21.9885 15.5021 22.8204 17.0068 22.8204C18.5003 22.8204 19.4922 21.5252 20.4396 20.2508C21.4873 18.787 21.9331 17.3652 21.9443 17.2915C21.8551 17.2705 19.0018 16.1647 19.0018 13.0789C19.0018 10.404 21.2421 9.20345 21.3758 9.10866C19.8935 7.09717 17.631 7.03399 17.0068 7.03399ZM16.2266 5.32791C16.9065 4.54859 17.3857 3.48492 17.3857 2.41072C17.3857 2.26328 17.3747 2.11584 17.3523 2C16.2378 2.04213 14.9003 2.69507 14.109 3.5797C13.4737 4.2537 12.8941 5.32791 12.8941 6.4021C12.8941 6.5706 12.9276 6.72858 12.9387 6.78123C13.0056 6.79176 13.117 6.81283 13.2396 6.81283C14.2316 6.81283 15.4799 6.18094 16.2266 5.32791Z" fill="white" fill-opacity="0.85"/>
</g>
<defs>
<clipPath id="clip0_11185_8801">
<rect width="18" height="22" fill="white" transform="translate(4 2)"/>
</clipPath>
</defs>
</svg>
