<svg width="26" height="26" viewBox="0 0 26 26" fill="none" xmlns="http://www.w3.org/2000/svg">
<g clip-path="url(#clip0_11185_8758)">
<path d="M7.63379 24.2646H18.0048C20.0263 24.2646 21.0322 23.249 21.0322 21.1982V6.39356C21.0322 4.3916 20.0654 3.32715 18.1123 3.32715H17.8779C17.8876 3.40527 17.8876 3.49316 17.8876 3.57129V4.4502C17.8876 4.60645 17.8779 4.7627 17.8486 4.89942H18.083C19.0009 4.89942 19.4599 5.49512 19.4599 6.41309V21.1787C19.4599 22.1552 18.9423 22.6923 17.9267 22.6923H7.71192C6.69629 22.6923 6.17872 22.1552 6.17872 21.1787V6.41309C6.17872 5.49512 6.6377 4.89942 7.55567 4.89942H7.79004C7.76075 4.7627 7.75098 4.60645 7.75098 4.4502V3.57129C7.75098 3.49316 7.75098 3.40527 7.76075 3.32715H7.52637C5.57324 3.32715 4.60645 4.3916 4.60645 6.39356V21.1982C4.60645 23.249 5.61231 24.2646 7.63379 24.2646ZM9.80176 5.56348H15.8369C16.4033 5.56348 16.7451 5.20215 16.7451 4.59668V3.57129C16.7451 2.96582 16.4033 2.60449 15.8369 2.60449H14.9384C14.8701 1.50098 13.9521 0.602539 12.8193 0.602539C11.6865 0.602539 10.7686 1.50098 10.7002 2.60449H9.80176C9.23536 2.60449 8.89356 2.96582 8.89356 3.57129V4.59668C8.89356 5.20215 9.23536 5.56348 9.80176 5.56348ZM12.8193 3.53223C12.3506 3.53223 11.9697 3.1416 11.9697 2.68262C11.9697 2.2041 12.3506 1.82324 12.8193 1.82324C13.2881 1.82324 13.6689 2.2041 13.6689 2.68262C13.6689 3.1416 13.2881 3.53223 12.8193 3.53223Z" fill="white" fill-opacity="0.85"/>
<path d="M8.51269 15.9834H17.1259C17.4677 15.9834 17.7412 15.7099 17.7412 15.3681C17.7412 15.0361 17.4677 14.7724 17.1259 14.7724H8.51269C8.17089 14.7724 7.89746 15.0361 7.89746 15.3681C7.89746 15.7099 8.17089 15.9834 8.51269 15.9834ZM8.51269 19.6357H13.4346C13.7666 19.6357 14.04 19.3623 14.04 19.0302C14.04 18.6982 13.7764 18.4248 13.4346 18.4248H8.51269C8.17089 18.4248 7.89746 18.6982 7.89746 19.0302C7.89746 19.3623 8.18066 19.6357 8.51269 19.6357ZM8.74706 10.8369C9.27441 10.8369 9.69433 10.417 9.69433 9.88965C9.69433 9.36231 9.27441 8.94238 8.74706 8.94238C8.21972 8.94238 7.7998 9.36231 7.7998 9.88965C7.7998 10.417 8.21972 10.8369 8.74706 10.8369ZM8.31738 10.1729L12.6143 12.3505L13.083 11.5498L8.77636 9.38184L8.31738 10.1729ZM12.7607 12.7802C13.2979 12.7802 13.7178 12.3603 13.7178 11.833C13.7178 11.3056 13.2979 10.8857 12.7607 10.8857C12.2432 10.8857 11.8232 11.3056 11.8232 11.833C11.8232 12.3603 12.2432 12.7802 12.7607 12.7802ZM12.5654 11.4912L13.0928 12.2334L17.2041 9.19629L16.6669 8.4541L12.5654 11.4912ZM16.8818 9.86035C17.4189 9.86035 17.8388 9.44043 17.8388 8.91309C17.8388 8.38574 17.4189 7.96582 16.8818 7.96582C16.3642 7.96582 15.9443 8.38574 15.9443 8.91309C15.9443 9.44043 16.3642 9.86035 16.8818 9.86035Z" fill="white" fill-opacity="0.85"/>
</g>
<defs>
<clipPath id="clip0_11185_8758">
<rect width="16.7871" height="24.7949" fill="white" transform="translate(4.60645 0.602539)"/>
</clipPath>
</defs>
</svg>
