<svg width="26" height="26" viewBox="0 0 26 26" fill="none" xmlns="http://www.w3.org/2000/svg">
<g clip-path="url(#clip0_11185_8773)">
<path d="M4.13281 19.2939L11.7109 23.6787C12.4141 24.0888 13.2246 24.0888 13.9375 23.6787L21.5058 19.2939C22.209 18.8935 22.6191 18.1806 22.6191 17.3701V8.62012C22.6191 7.80957 22.209 7.09668 21.5058 6.68653L13.9375 2.32129C13.2246 1.90137 12.4141 1.90137 11.7109 2.32129L4.13281 6.68653C3.42969 7.09668 3.01953 7.80957 3.01953 8.62012V17.3701C3.01953 18.1806 3.42969 18.8935 4.13281 19.2939ZM4.5918 17.0869V8.90332C4.5918 8.49317 4.80664 8.13184 5.16797 7.91699L12.2481 3.8252C12.6094 3.61035 13.0293 3.61035 13.3906 3.8252L20.4804 7.91699C20.8418 8.13184 21.0468 8.49317 21.0468 8.90332V17.0869C21.0468 17.497 20.8418 17.8584 20.4804 18.0732L13.4004 22.165C13.0293 22.3798 12.6094 22.3798 12.2481 22.165L5.16797 18.0732C4.80664 17.8584 4.5918 17.497 4.5918 17.0869Z" fill="white" fill-opacity="0.85"/>
</g>
<defs>
<clipPath id="clip0_11185_8773">
<rect width="19.9609" height="21.9873" fill="white" transform="translate(3.01953 2.00635)"/>
</clipPath>
</defs>
</svg>
