<svg width="52" height="56" viewBox="0 0 52 56" fill="none" xmlns="http://www.w3.org/2000/svg">
<path d="M20.4814 1.37899C23.6661 -0.459675 27.5897 -0.459655 30.7744 1.37899L46.1094 10.2325C49.2941 12.0712 51.2559 15.4692 51.2559 19.1466V36.8536C51.2559 40.5309 49.294 43.929 46.1094 45.7677L30.7744 54.6212C27.5897 56.4599 23.6661 56.4599 20.4814 54.6212L5.14648 45.7677C1.96189 43.929 7.57461e-07 40.5309 0 36.8536L0 19.1466C6.8597e-06 15.4693 1.96185 12.0712 5.14648 10.2325L20.4814 1.37899ZM25.5801 10.6114C16.1781 10.6117 8.55667 18.2329 8.55664 27.6329C8.55671 35.1358 13.4168 41.5227 20.1807 43.7823C21.8984 44.3561 23.4126 45.5338 24.3838 47.171L24.4297 47.2501L25.5791 49.2403L26.7285 47.2501L26.7744 47.172C27.7456 45.5344 29.2605 44.3562 30.9785 43.7823L31.1367 43.7286C37.8186 41.4231 42.6034 35.0776 42.6035 27.6329C42.6035 18.3062 35.1006 10.7302 25.7998 10.6124L25.5801 10.6114ZM25.6816 18.8116C30.4962 18.8726 34.3807 22.7942 34.3809 27.6222C34.3807 31.476 31.9034 34.7608 28.4443 35.9542L28.3623 35.9825C27.4734 36.2797 26.6891 36.8891 26.1865 37.7364L26.1631 37.7774L25.5684 38.8077L24.9727 37.7765L24.9492 37.7364C24.4464 36.889 23.6626 36.2786 22.7734 35.9815C19.2723 34.8117 16.756 31.5059 16.7559 27.6222C16.756 22.7564 20.7016 18.8111 25.5684 18.8106L25.6816 18.8116Z" fill="white"/>
</svg>
