<svg width="24" height="24" viewBox="0 0 24 24" fill="none" xmlns="http://www.w3.org/2000/svg">
<path d="M11.8411 12.9323C12.117 12.9323 12.3846 12.8236 12.6438 12.5895L20.9965 5.23171C20.545 4.93071 20.0266 4.79694 19.3075 4.79694H4.38306C3.664 4.79694 3.14561 4.93071 2.68575 5.23171L11.0384 12.5895C11.306 12.8236 11.5735 12.9323 11.8411 12.9323ZM1.97506 17.857L8.16226 11.6781L1.95834 6.20996C1.86637 6.38554 1.75768 6.81195 1.75768 7.38887V16.6195C1.75768 17.1546 1.84129 17.5392 1.97506 17.857ZM4.13222 19.2114H19.5584C20.1688 19.2114 20.6453 19.0609 20.963 18.8435L14.6003 12.4808L13.3796 13.5677C12.8946 13.9942 12.3679 14.2115 11.8411 14.2115C11.3228 14.2115 10.796 13.9942 10.3111 13.5677L9.09034 12.4808L2.72756 18.8435C3.04528 19.0609 3.5135 19.2114 4.13222 19.2114ZM21.7155 17.857C21.841 17.5392 21.933 17.1546 21.933 16.6195V7.38887C21.933 6.81195 21.8243 6.38554 21.7323 6.20996L15.5284 11.6781L21.7155 17.857Z" fill="white" fill-opacity="0.85"/>
</svg>
