<svg width="26" height="26" viewBox="0 0 26 26" fill="none" xmlns="http://www.w3.org/2000/svg">
<g clip-path="url(#clip0_11185_8786)">
<path d="M10.207 9.35254H8.23437C6.63281 9.35254 5.72461 10.251 5.72461 11.8623V19.3819C5.72461 20.9932 6.63281 21.8916 8.23437 21.8916H17.3945C19.0058 21.8916 19.914 20.9932 19.914 19.3819V11.8623C19.914 10.251 19.0058 9.35254 17.3945 9.35254H15.4218V7.78027H17.3945C20.0214 7.78027 21.4863 9.23535 21.4863 11.8623V19.3819C21.4863 21.9991 20.0214 23.4639 17.3945 23.4639H8.23437C5.60742 23.4639 4.15234 21.9991 4.15234 19.3819V11.8623C4.15234 9.23535 5.60742 7.78027 8.23437 7.78027H10.207V9.35254Z" fill="white" fill-opacity="0.85"/>
<path d="M13.5303 3.65733L13.5957 5.12402V15.0655C13.5957 15.4756 13.2344 15.8174 12.8145 15.8174C12.3945 15.8174 12.043 15.4756 12.043 15.0655V5.12402L12.1086 3.65255L12.8145 2.89746L13.5303 3.65733Z" fill="white" fill-opacity="0.85"/>
<path d="M9.5039 6.09082C9.68945 6.09082 9.90429 6.01269 10.041 5.85645L11.5547 4.24512L12.8145 2.89746L14.084 4.24512L15.5878 5.85645C15.7246 6.01269 15.9296 6.09082 16.1152 6.09082C16.5253 6.09082 16.8281 5.79785 16.8281 5.40723C16.8281 5.19238 16.75 5.03613 16.6035 4.88965L13.3809 1.78418C13.1855 1.58887 13.0195 1.53027 12.8145 1.53027C12.6191 1.53027 12.4531 1.58887 12.248 1.78418L9.03515 4.88965C8.88867 5.03613 8.80078 5.19238 8.80078 5.40723C8.80078 5.79785 9.09375 6.09082 9.5039 6.09082Z" fill="white" fill-opacity="0.85"/>
</g>
<defs>
<clipPath id="clip0_11185_8786">
<rect width="26" height="26" fill="white"/>
</clipPath>
</defs>
</svg>
